<?xml version="1.0" encoding="iso-8859-1"?>
<!-- Generator: Adobe Illustrator 19.0.0, SVG Export Plug-In . SVG Version: 6.00 Build 0)  -->
<svg xmlns="http://www.w3.org/2000/svg" xmlns:xlink="http://www.w3.org/1999/xlink" version="1.1" id="Layer_1" x="0px" y="0px" viewBox="0 0 502 502" style="enable-background:new 0 0 502 502;" xml:space="preserve" width="512" height="512">
<g>
	<g>
		<g>
			<rect x="451.883" y="71.326" style="fill:#4D93E8;" width="40.117" height="359.348"/>
			<rect x="10" y="71.326" style="fill:#4D93E8;" width="40.117" height="359.348"/>
			<polygon style="fill:#CCD7EB;" points="50.117,50.118 50.117,71.326 50.117,430.674 50.117,451.882 451.883,451.882      451.883,430.674 451.883,71.326 451.883,50.118    "/>
		</g>
		<g>
			<path style="fill:#4D93E8;" d="M137.826,304.562c-30.27,12.538-47.017,41.516-37.404,64.723     c9.613,23.207,41.944,31.856,72.215,19.318c30.27-12.538,47.017-41.516,37.404-64.723S168.097,292.023,137.826,304.562z"/>
			<path style="fill:#4D93E8;" d="M329.363,278.551c-30.27,12.538-47.017,41.516-37.404,64.723     c9.613,23.207,41.944,31.856,72.215,19.318c30.27-12.538,47.017-41.516,37.404-64.723     C391.965,274.661,359.633,266.012,329.363,278.551z"/>
			<polygon style="fill:#4D93E8;" points="404.29,151.485 212.754,177.978 212.754,132.481 404.29,105.988    "/>
		</g>
	</g>
	<g>
		<path d="M492,61.326h-30.117V50.118c0-5.523-4.477-10-10-10H50.117c-5.523,0-10,4.477-10,10v11.208H10c-5.523,0-10,4.477-10,10    v359.349c0,5.523,4.477,10,10,10h30.117v11.208c0,5.523,4.477,10,10,10h401.766c5.523,0,10-4.477,10-10v-11.208H492    c5.523,0,10-4.477,10-10V71.326C502,65.803,497.523,61.326,492,61.326z M20,420.674V81.326h20.117v339.349H20z M441.883,441.882    H60.117V60.118h381.766V441.882z M482,420.674h-20.117V81.326H482V420.674z"/>
		<path d="M202.753,299.64c-5.314-3.739-11.523-6.621-18.489-8.485c-15.752-4.215-33.604-2.734-50.265,4.167    c-16.661,6.901-30.33,18.477-38.489,32.596c-8.657,14.979-10.193,31.029-4.327,45.193s18.302,24.426,35.016,28.897    c5.882,1.574,12.055,2.353,18.351,2.353c10.565,0,21.474-2.196,31.914-6.521c16.661-6.901,30.33-18.477,38.489-32.596    c5.475-9.473,8.093-19.374,7.8-28.956v-149.6l171.537-23.726V273.63c-5.314-3.739-11.523-6.622-18.49-8.485    c-15.752-4.215-33.604-2.734-50.265,4.167c-16.661,6.901-30.33,18.477-38.489,32.596c-8.657,14.979-10.193,31.029-4.327,45.193    s18.302,24.426,35.016,28.897c5.882,1.574,12.055,2.353,18.351,2.353c10.565,0,21.474-2.196,31.914-6.521    c16.661-6.901,30.33-18.477,38.489-32.596c5.473-9.47,8.091-19.368,7.801-28.947V105.988c0-2.891-1.251-5.641-3.431-7.54    s-5.075-2.759-7.939-2.366l-191.537,26.493c-4.946,0.684-8.63,4.912-8.63,9.906V299.64z M197.637,355.238    c-5.97,10.331-16.208,18.898-28.827,24.125c-8.248,3.417-16.644,5.04-24.472,5.039c-16.019-0.001-29.648-6.802-34.678-18.944    c-3.432-8.285-2.308-18.063,3.165-27.532c5.97-10.331,16.208-18.898,28.827-24.125c8.248-3.417,16.644-5.039,24.472-5.039    c16.019,0,29.648,6.802,34.678,18.944C204.234,335.991,203.11,345.769,197.637,355.238z M222.753,166.499v-25.306l171.537-23.727    v25.306L222.753,166.499z M389.174,329.227c-5.97,10.331-16.208,18.898-28.827,24.125c-25.126,10.409-51.662,4.17-59.149-13.905    c-3.432-8.285-2.308-18.063,3.165-27.532c5.97-10.331,16.208-18.898,28.827-24.125c25.128-10.408,51.662-4.17,59.149,13.905    C395.771,309.979,394.646,319.757,389.174,329.227z"/>
		<path d="M95,265V134c0-5.523-4.477-10-10-10s-10,4.477-10,10v131c0,5.523,4.477,10,10,10S95,270.523,95,265z"/>
		<path d="M85,109c5.523,0,10-4.477,10-10V85c0-5.523-4.477-10-10-10s-10,4.477-10,10v14C75,104.523,79.477,109,85,109z"/>
	</g>
</g>















</svg>
